<?xml version="1.0" standalone="no"?>
<!DOCTYPE svg PUBLIC "-//W3C//DTD SVG 20010904//EN"
 "http://www.w3.org/TR/2001/REC-SVG-20010904/DTD/svg10.dtd">
<svg version="1.0" xmlns="http://www.w3.org/2000/svg"
 width="512.000000pt" height="512.000000pt" viewBox="0 0 512.000000 512.000000"
 preserveAspectRatio="xMidYMid meet">

<g transform="translate(0.000000,512.000000) scale(0.100000,-0.100000)"
fill="#000000" stroke="none">
<path d="M2813 4480 c-50 -20 -55 -71 -12 -123 l31 -37 -31 -36 c-36 -40 -39
-76 -11 -104 29 -29 73 -25 112 9 l33 29 35 -29 c43 -36 92 -39 114 -7 24 34
19 63 -15 103 l-31 35 31 35 c35 40 39 73 14 103 -30 35 -70 33 -116 -8 l-34
-30 -19 21 c-16 18 -67 50 -76 48 -2 0 -13 -4 -25 -9z"/>
<path d="M3684 4148 c-44 -21 -52 -80 -16 -120 24 -29 86 -24 111 8 12 15 21
33 21 40 0 26 -23 62 -47 73 -29 13 -41 13 -69 -1z"/>
<path d="M1250 3894 c-92 -19 -233 -93 -307 -159 -78 -70 -145 -171 -186 -277
-29 -78 -31 -91 -31 -223 -1 -128 1 -147 27 -221 66 -194 230 -362 413 -425
59 -20 59 -21 119 -122 99 -166 128 -167 225 -5 l62 104 65 23 c153 55 292
182 369 336 120 242 95 498 -70 722 -85 116 -244 217 -391 248 -86 18 -209 18
-295 -1z m289 -139 c96 -25 162 -65 242 -144 115 -115 161 -227 160 -391 0
-111 -27 -198 -92 -294 -74 -111 -159 -174 -299 -221 -62 -21 -67 -25 -105
-88 -22 -37 -42 -67 -45 -67 -3 0 -23 30 -45 66 -39 65 -41 67 -115 93 -103
36 -165 74 -230 140 -174 178 -205 461 -72 667 80 123 184 201 322 240 62 17
213 17 279 -1z"/>
<path d="M1427 3618 c-22 -20 -33 -63 -96 -383 -70 -356 -71 -360 -53 -385 11
-15 31 -26 48 -28 58 -6 65 13 139 383 37 187 68 353 68 369 0 32 -33 66 -64
66 -10 0 -29 -10 -42 -22z"/>
<path d="M1048 3349 c-126 -85 -144 -109 -115 -152 22 -34 232 -169 262 -169
48 0 78 47 59 96 -3 8 -35 34 -70 57 -35 23 -64 44 -64 48 1 3 31 26 68 51 58
39 67 50 70 78 4 44 -21 72 -62 71 -22 0 -67 -24 -148 -80z"/>
<path d="M1556 3411 c-11 -12 -16 -31 -14 -53 3 -28 12 -39 70 -78 37 -25 67
-48 68 -51 0 -3 -31 -27 -70 -53 -64 -42 -70 -49 -70 -80 0 -42 41 -80 74 -70
34 10 237 147 253 170 28 44 9 70 -118 155 -126 84 -161 95 -193 60z"/>
<path d="M2530 3877 c-13 -7 -31 -24 -39 -38 -26 -46 18 -109 75 -109 22 0 74
55 74 79 0 24 -37 67 -65 75 -11 3 -31 0 -45 -7z"/>
<path d="M3253 3699 c-223 -39 -398 -202 -465 -434 -23 -79 -23 -86 -23 -600
0 -565 1 -576 57 -688 16 -32 45 -76 65 -98 20 -22 34 -41 32 -43 -2 -1 -28
-16 -58 -32 -93 -50 -170 -141 -209 -247 -10 -26 -18 -95 -21 -182 l-6 -140
-64 470 c-34 259 -67 487 -72 507 -5 21 -18 42 -29 48 -12 7 -365 10 -1033 10
-970 0 -1015 -1 -1030 -18 -10 -10 -17 -34 -17 -52 0 -54 199 -1503 210 -1528
5 -12 21 -27 36 -32 17 -7 735 -9 2049 -8 1973 3 2023 3 2044 22 13 12 21 31
21 52 0 49 -28 64 -122 64 l-78 0 0 244 c0 272 -10 346 -60 453 -39 85 -84
148 -148 211 l-55 52 45 0 c84 0 78 -56 78 746 0 792 2 763 -71 912 -69 141
-194 248 -349 298 -47 15 -101 18 -365 20 -170 1 -333 -2 -362 -7z m744 -168
c52 -24 89 -51 131 -95 65 -67 91 -111 119 -201 17 -56 18 -107 18 -715 l0
-655 -307 -3 -308 -2 0 88 0 89 73 36 c144 72 258 194 309 332 21 57 22 78 26
387 3 319 3 327 -17 347 -20 20 -31 21 -375 21 l-355 0 -3 51 c-2 42 -8 56
-29 71 -53 39 -109 -8 -109 -92 l0 -30 -131 0 -132 0 7 43 c16 107 117 252
216 310 90 52 126 57 475 54 l320 -2 72 -34z m-67 -723 c0 -117 -5 -242 -10
-277 -23 -160 -147 -302 -315 -362 -76 -27 -234 -37 -313 -19 -136 29 -272
123 -335 230 -49 84 -57 142 -57 402 l0 238 515 0 515 0 0 -212z m-838 -728
l78 -41 0 -86 0 -85 -27 7 c-55 13 -129 63 -166 111 -38 50 -77 153 -77 206
l0 30 57 -51 c31 -28 92 -69 135 -91z m-636 -620 c51 -371 93 -678 94 -682 0
-7 -1839 -12 -1841 -5 -8 32 -185 1354 -182 1360 2 4 417 6 921 5 l916 -3 92
-675z m1062 424 c3 -141 10 -154 84 -154 26 0 48 -2 48 -4 0 -23 -38 -98 -63
-124 -114 -120 -296 -100 -377 41 -43 74 -40 87 15 87 76 0 85 17 85 158 l0
117 102 -1 103 -2 3 -118z m513 -184 c169 -52 308 -198 354 -371 11 -40 15
-120 15 -306 l0 -253 -170 0 -170 0 0 185 c0 172 -1 186 -20 205 -24 24 -57
26 -88 4 -21 -15 -22 -20 -22 -200 0 -141 -3 -186 -13 -190 -7 -2 -101 -3
-210 -2 l-197 3 35 52 c40 60 45 101 14 129 -19 17 -42 19 -270 22 l-249 3 0
73 c0 87 -22 126 -70 126 -48 0 -70 -39 -70 -126 l0 -74 -71 0 -71 0 4 248 c6
294 11 317 97 403 51 51 123 89 167 89 6 0 17 -21 24 -47 27 -108 98 -196 202
-249 75 -39 207 -46 290 -15 126 48 212 152 243 295 l6 29 88 -6 c48 -4 117
-16 152 -27z m-651 -866 c0 -3 -8 -19 -17 -35 l-17 -29 -291 2 c-270 3 -290 4
-293 21 -9 47 -12 47 313 47 168 0 305 -3 305 -6z"/>
<path d="M2996 2799 c-35 -28 -35 -70 0 -98 33 -26 55 -26 85 -3 45 37 16 122
-41 122 -9 0 -29 -9 -44 -21z"/>
<path d="M3540 2800 c-23 -23 -26 -68 -7 -93 35 -46 117 -16 117 43 0 59 -70
90 -110 50z"/>
<path d="M3145 2468 c-51 -29 -49 -78 5 -129 72 -69 181 -84 270 -39 39 20 87
67 91 90 6 31 -12 71 -37 80 -36 14 -304 12 -329 -2z"/>
<path d="M1465 1645 c-76 -27 -135 -115 -135 -200 0 -40 31 -104 66 -137 111
-103 284 -61 332 81 27 78 3 161 -61 218 -58 51 -128 64 -202 38z m117 -142
c22 -20 23 -70 1 -95 -20 -22 -70 -23 -95 -1 -10 9 -18 29 -18 45 0 57 70 89
112 51z"/>
</g>
</svg>
